# xmcd
#
# Track frame offsets:
# 150
# 14771
# 32439
# 51408
# 67467
# 87806
# 104332
# 119597
# 138339
# 159122
# 177667
# 191284
# 211121
# 230198
# 248529
# 273323
# 291098
# 308795
# 338177
#
# Disc length: 4606 seconds
#
#
# Revision: 0
# Processed by: cddbd v1.4PL0 Copyright (c) Steve Scherf et al.
# Submitted via: FreeRIP 2.10 
#
DISCID=1811fc13
DTITLE=SHANIA TWAIN - Millenium Hits 1st CD
DYEAR=2000
DGENRE=Country
TTITLE0=I'm holding on to love (to save my love)
TTITLE1=Man! I feel like a woman
TTITLE2=Don't be stupid (you know i love you) (dance mix)
TTITLE3=Honey I'm home
TTITLE4=If your not in it for love I'm outta here
TTITLE5=When
TTITLE6=You've got a way (Notting Hill remix) 
TTITLE7=From the moment on (live) with Backstreet boys
TTITLE8=That don't impress me much (dance version)
TTITLE9=Rock this coutry
TTITLE10=Come on over (live)
TTITLE11=Whose bed have your bots been
TTITLE12=I won't leavy you lonely
TTITLE13=Man! I feel like a woman (live awards)
TTITLE14=You've got a friend (vs. C.DION, G.ESTEFAN)
TTITLE15=From this moment
TTITLE16=Na laetha gealm'oige
TTITLE17=You're still the one and
TTITLE18=Amneris' letter (feat. ELTON JOHN)
EXTD=
EXTT0=
EXTT1=
EXTT2=
EXTT3=
EXTT4=
EXTT5=
EXTT6=
EXTT7=
EXTT8=
EXTT9=
EXTT10=
EXTT11=
EXTT12=
EXTT13=
EXTT14=
EXTT15=
EXTT16=
EXTT17=
EXTT18=
PLAYORDER=
